<svg xmlns="http://www.w3.org/2000/svg" width="200" height="200"><style>.st1{fill:none}.st1,.st2,.st3,.st5{stroke:#fff;stroke-width:2;stroke-linecap:round;stroke-linejoin:round}.st2{stroke-dasharray:1.9829,4.9573;fill:none}.st3,.st5{fill:#bcc1cb;stroke-miterlimit:10}.st5{fill:none}</style><path fill="#c7cbd4" d="M0 0h200v200H0z"/><path class="st1" d="M159 158v1h-1"/><path class="st2" d="M153 159H44.5"/><path class="st1" d="M42 159h-1v-1"/><path class="st2" d="M41 153V44.5"/><path class="st1" d="M41 42v-1h1"/><path class="st2" d="M47 41h108.5"/><path class="st1" d="M158 41h1v1"/><path class="st2" d="M159 47v108.5"/><path class="st3" d="M37 37h7v7h-7zM156 37h7v7h-7zM37 156h7v7h-7z"/><path id="XMLID_1_" class="st3" d="M156 156h7v7h-7z"/><g><path fill="#bcc1cb" d="M102.9 108.2l15.8-15.9 25.3 25.2V144H56v-33l24.8-24.8 22.1 22"/><path class="st5" d="M56 56h88v88H56zM128.2 127.6H144M114.3 127.6h5.3M56 127.6h49.4"/><path class="st5" d="M56 111l24.8-24.8 33.5 33.4M144 117.5l-25.3-25.2-15.8 15.9"/><circle class="st3" cx="105.4" cy="78.5" r="5.6"/></g></svg>